<svg xmlns="http://www.w3.org/2000/svg" xmlns:xlink="http://www.w3.org/1999/xlink" version="1.1" x="0px" y="0px" width="100px" height="100px" viewBox="0 0 100 100" enable-background="new 0 0 100 100" xml:space="preserve">
<g id="Captions">
</g>
<g id="Your_Icon">
	<path fill="#000000" d="M93.039,15.404c-2.73-2.729-6.359-4.233-10.219-4.233c-3.864,0-7.495,1.504-10.221,4.238L37.988,50.018   L27.677,39.712c-2.73-2.726-6.357-4.231-10.217-4.231c-3.861,0-7.489,1.505-10.221,4.231C4.507,42.446,3,46.075,3,49.94   c0,3.859,1.507,7.493,4.237,10.222l20.514,20.551c2.73,2.728,6.358,4.232,10.216,4.232c3.867,0,7.496-1.505,10.222-4.238   l44.851-44.843c2.737-2.734,4.243-6.369,4.243-10.232C97.282,21.771,95.776,18.137,93.039,15.404z"/>
</g>
</svg>